<svg xmlns="http://www.w3.org/2000/svg" xmlns:xlink="http://www.w3.org/1999/xlink" width="500" zoomAndPan="magnify" viewBox="0 0 375 374.999991" height="500" preserveAspectRatio="xMidYMid meet" version="1.0"><path fill="#13100d" d="M 186.8125 38.207031 C 190.679688 37.480469 194.632812 38.023438 198.460938 38.730469 C 200.585938 39.121094 202.679688 39.726562 204.613281 40.691406 C 208.457031 42.589844 212.339844 44.695312 215.199219 47.980469 C 219.28125 52.605469 221.667969 58.425781 223.625 64.207031 C 225.011719 68.148438 225.679688 72.285156 226.546875 76.359375 C 228.164062 83.65625 228.285156 91.257812 227.152344 98.636719 C 225.210938 108.917969 222.414062 119.1875 217.324219 128.378906 C 213.140625 136.0625 206.703125 142.238281 202.769531 150.070312 C 200.890625 154.828125 200.96875 160.050781 201.574219 165.046875 C 202.34375 179.929688 203.550781 194.785156 203.929688 209.683594 C 204.722656 237.617188 204.75 265.578125 203.257812 293.488281 C 202.261719 305.855469 201.226562 318.261719 198.867188 330.460938 C 198.40625 332.4375 197.988281 335.0625 195.792969 335.832031 C 193.703125 336.386719 191.507812 336.46875 189.359375 336.5625 C 187.992188 336.652344 187.289062 335.164062 187.464844 333.988281 C 187.867188 314.175781 186.253906 294.375 187.253906 274.574219 C 187.410156 258.601562 187.917969 242.632812 188.414062 226.664062 C 188.972656 212.464844 188.941406 198.246094 188.984375 184.035156 C 188.949219 176.472656 188.4375 168.917969 188.660156 161.351562 C 188.523438 157.0625 187.6875 152.425781 184.589844 149.242188 C 180.648438 144.910156 176.742188 140.515625 173.546875 135.585938 C 170.308594 130.988281 167.882812 125.898438 165.28125 120.929688 C 162.136719 114.882812 159.976562 108.40625 157.625 102.027344 C 154.957031 95.355469 154.070312 88.117188 153.726562 80.980469 C 153.351562 74.082031 154.144531 67.082031 156.253906 60.5 C 158.433594 55.570312 160.761719 50.515625 164.714844 46.730469 C 167.710938 43.308594 172.039062 41.640625 176.160156 40.039062 C 179.570312 38.761719 183.296875 39.050781 186.8125 38.207031 Z M 182.121094 43.703125 C 180.523438 43.871094 178.925781 44.132812 177.429688 44.714844 C 174.164062 46.011719 170.648438 47.183594 168.277344 49.933594 C 164.800781 53.332031 162.761719 57.832031 160.832031 62.214844 C 157.320312 73.210938 158.25 85.136719 161.125 96.171875 C 163.402344 102.460938 165.597656 108.796875 168.332031 114.90625 C 172.972656 124.480469 177.992188 134.007812 184.996094 142.085938 C 188.054688 145.5 191.042969 149.128906 192.613281 153.507812 C 192.925781 156.152344 192.730469 158.832031 192.816406 161.492188 C 192.699219 169.59375 193.179688 177.683594 193.191406 185.777344 C 193.058594 199.265625 193.246094 212.769531 192.523438 226.242188 C 192.105469 239.164062 191.574219 252.085938 191.230469 265.007812 C 191.339844 274.347656 190.519531 283.671875 190.714844 293.007812 C 190.617188 298.785156 191.046875 304.550781 191.011719 310.332031 C 191.324219 317.71875 191.015625 325.113281 191.28125 332.503906 C 192.167969 332.367188 193.0625 332.242188 193.957031 332.109375 C 196.703125 319.542969 197.582031 306.652344 198.625 293.851562 C 200.125 266.578125 200.082031 239.253906 199.597656 211.949219 C 199.355469 197.351562 198.5 182.761719 198.226562 168.160156 C 198.160156 161.890625 197.324219 155.589844 198.15625 149.34375 C 199.101562 148.523438 199.710938 147.417969 200.25 146.300781 C 202.792969 141.265625 206.175781 136.742188 209.429688 132.15625 C 214.292969 125.269531 217.527344 117.371094 219.753906 109.261719 C 221.714844 101.859375 223.363281 94.246094 222.949219 86.542969 C 222.75 80.679688 221.320312 74.964844 220.175781 69.242188 C 218.871094 64.390625 217.175781 59.59375 214.648438 55.242188 C 210.429688 47.628906 201.828125 43.257812 193.371094 42.660156 C 189.566406 42.078125 185.871094 43.382812 182.121094 43.703125 Z M 195.265625 50.449219 C 199.355469 51.90625 203.023438 54.46875 205.675781 57.929688 C 209.355469 62.492188 212.277344 67.824219 213.394531 73.632812 C 214.738281 80.257812 215.261719 87.058594 214.792969 93.804688 C 214.484375 100.328125 212.917969 106.691406 211.65625 113.074219 C 209.859375 119.929688 207.78125 127.082031 202.984375 132.488281 C 201.453125 134.214844 199.890625 136.097656 197.710938 136.996094 C 196.707031 137.472656 195.660156 136.929688 194.9375 136.242188 C 195.226562 135.039062 196.675781 134.710938 197.429688 133.832031 C 201.042969 130.078125 203.878906 125.519531 205.417969 120.511719 C 207.59375 114.394531 208.597656 107.96875 209.835938 101.617188 C 210.9375 95.664062 211.210938 89.5625 210.972656 83.519531 C 210.476562 76.699219 209.898438 69.582031 206.425781 63.527344 C 204.128906 59.582031 201.554688 55.621094 197.855469 52.859375 C 196.921875 52.132812 196.046875 51.332031 195.265625 50.449219 Z M 195.265625 50.449219 " fill-opacity="1" fill-rule="nonzero"/></svg>